<?xml version="1.0" encoding="iso-8859-1"?>
<!-- Generator: Adobe Illustrator 19.0.0, SVG Export Plug-In . SVG Version: 6.00 Build 0)  -->
<svg version="1.1" id="Layer_1" xmlns="http://www.w3.org/2000/svg" xmlns:xlink="http://www.w3.org/1999/xlink" x="0px" y="0px"
	 viewBox="0 0 496 496" style="enable-background:new 0 0 496 496;" xml:space="preserve">
<path style="fill:#9CEA13;" d="M181.6,136H280h7.2L210.4,6.4C131.2,18.4,64.8,64,28.8,136H181.6z"/>
<polyline style="fill:#8AD803;" points="184,136 279.2,136 287.2,136 210.4,6.4 "/>
<path style="fill:#51CE00;" d="M313.6,136L313.6,136l41.6,68.8V204l12.8,21.6L444,96C398.4,37.6,333.6,0,254.4,0
	c-4,0-15.2,0.8-18.4,2.4L313.6,136z"/>
<polyline style="fill:#35BA04;" points="312,132.8 312,132.8 355.2,204.8 356,204 368,225.6 443.2,98.4 "/>
<path style="fill:#9CEA13;" d="M336.8,327.2L328,344h150.4c11.2-32,17.6-61.6,17.6-94.4c0-48-13.6-92.8-37.6-131.2L336.8,327.2z"/>
<path style="fill:#8AD803;" d="M336.8,327.2L328,344h150.4c11.2-32,17.6-60.8,17.6-93.6"/>
<path style="fill:#9CEA13;" d="M144.8,300l-17.6-29.6l-76,128.8C96.8,458.4,168,496,248,496c3.2,0,6.4,0,8.8,0L144.8,300z"/>
<path style="fill:#8AD803;" d="M51.2,399.2C96.8,458.4,168,496,248,496c3.2,0,6.4,0,8.8,0l-112-196"/>
<path style="fill:#51CE00;" d="M168,152H17.6C6.4,184,0,213.6,0,246.4c0,48,13.6,93.6,36.8,131.2L168,152L168,152z"/>
<path style="fill:#35BA04;" d="M0,248c0,48,13.6,92,36.8,130.4L168,152l0,0"/>
<path style="fill:#51CE00;" d="M314.4,360h-85.6H208l74.4,129.6c80-11.2,148-57.6,184.8-129.6H314.4z"/>
<polyline style="fill:#35BA04;" points="312,360 228.8,360 208,360 282.4,489.6 "/>
<g>
</g>
<g>
</g>
<g>
</g>
<g>
</g>
<g>
</g>
<g>
</g>
<g>
</g>
<g>
</g>
<g>
</g>
<g>
</g>
<g>
</g>
<g>
</g>
<g>
</g>
<g>
</g>
<g>
</g>
</svg>
