<?xml version="1.0" encoding="iso-8859-1"?>
<!-- Generator: Adobe Illustrator 19.0.0, SVG Export Plug-In . SVG Version: 6.00 Build 0)  -->
<svg version="1.1" id="Layer_1" xmlns="http://www.w3.org/2000/svg" xmlns:xlink="http://www.w3.org/1999/xlink" x="0px" y="0px"
	 viewBox="0 0 408.76 408.76" style="enable-background:new 0 0 408.76 408.76;" xml:space="preserve">
<g>
	<path style="fill:#FFBE00;" d="M204.383,408.76c-58.121,0-113.675-24.869-152.417-68.227
		c-33.507-37.476-51.962-85.83-51.962-136.154C0.004,91.683,91.689,0,204.383,0c50.319,0,98.676,18.453,136.165,51.964
		c43.348,38.762,68.207,94.314,68.207,152.415C408.755,317.074,317.074,408.76,204.383,408.76"/>
	<path style="fill:#F4502A;" d="M377.75,204.379c0,4.04-0.14,8.06-0.419,12.029c-0.942,13.802-3.501,27.151-7.49,39.87
		c-20.39,65.09-78.11,113.66-148.081,120.61c-2.09,0.211-4.181,0.381-6.29,0.521c-3.66,0.229-7.361,0.349-11.091,0.349
		c-51.39,0-97.559-22.361-129.301-57.881c-0.259-0.29-0.519-0.589-0.789-0.879c-26.95-30.559-43.289-70.679-43.289-114.619
		c0-95.751,77.619-173.38,173.38-173.38c43.949,0,84.069,16.348,114.631,43.289c0.29,0.27,0.589,0.53,0.879,0.79
		C355.4,106.838,377.75,152.989,377.75,204.379"/>
	<path style="fill:#C29100;" d="M74.57,319.306c0.128,0.144,0.258,0.291,0.386,0.434C74.829,319.597,74.7,319.451,74.57,319.306
		 M59.611,108.938c-0.051,0.077-0.106,0.16-0.157,0.237C59.507,109.094,59.556,109.02,59.611,108.938 M60.009,108.335
		c-0.09,0.136-0.181,0.271-0.271,0.407C59.83,108.606,59.919,108.47,60.009,108.335 M102.238,64.265
		c-16.529,12.069-30.84,26.993-42.211,44.044C71.398,91.257,85.709,76.334,102.238,64.265 M102.563,64.028
		c-0.079,0.057-0.166,0.121-0.245,0.178C102.402,64.145,102.48,64.088,102.563,64.028 M102.896,63.786
		c-0.053,0.038-0.103,0.074-0.156,0.112C102.794,63.86,102.843,63.824,102.896,63.786 M103.224,63.55
		c-0.018,0.013-0.042,0.03-0.059,0.042C103.188,63.577,103.201,63.566,103.224,63.55 M263.717,41.418
		c0.007,0.003,0.017,0.006,0.024,0.009C263.734,41.424,263.727,41.421,263.717,41.418 M262.796,41.085
		c0.045,0.016,0.094,0.033,0.139,0.05C262.889,41.118,262.842,41.102,262.796,41.085 M262.279,40.901
		c0.055,0.02,0.116,0.041,0.171,0.061C262.392,40.941,262.336,40.921,262.279,40.901 M261.766,40.72
		c0.105,0.037,0.209,0.073,0.314,0.11C261.973,40.793,261.872,40.758,261.766,40.72 M261.339,40.571
		c0.084,0.029,0.168,0.058,0.252,0.088C261.507,40.629,261.423,40.6,261.339,40.571 M260.852,40.403
		c0.096,0.033,0.188,0.065,0.283,0.098C261.04,40.467,260.948,40.436,260.852,40.403 M260.355,40.232
		c0.123,0.042,0.241,0.082,0.363,0.124C260.596,40.314,260.477,40.274,260.355,40.232 M259.88,40.071
		c0.118,0.04,0.24,0.081,0.357,0.121C260.118,40.152,260,40.112,259.88,40.071 M259.426,39.918c0.137,0.046,0.276,0.093,0.414,0.139
		C259.703,40.011,259.563,39.964,259.426,39.918 M258.947,39.759c0.137,0.046,0.272,0.091,0.41,0.136
		C259.219,39.849,259.083,39.804,258.947,39.759 M258.012,39.452c0.288,0.094,0.582,0.19,0.869,0.285
		C258.592,39.642,258.302,39.546,258.012,39.452 M206.952,31.018c17.788,0.258,34.922,3.195,51.026,8.423
		C241.878,34.214,224.736,31.277,206.952,31.018 M206.443,31.011c0.168,0.002,0.337,0.004,0.505,0.007
		C206.781,31.016,206.611,31.013,206.443,31.011 M205.432,31.002c0.332,0.002,0.664,0.005,0.995,0.009
		C206.094,31.007,205.766,31.004,205.432,31.002 M204.923,31c0.158,0,0.315,0.001,0.473,0.002
		C205.236,31.001,205.08,31.001,204.923,31 M204.383,30.999L204.383,30.999c0.155,0,0.312,0,0.47,0.001
		C204.697,31,204.538,30.999,204.383,30.999"/>
	<path style="fill:#BA3D20;" d="M204.383,30.999c-37.757,0-72.688,12.063-101.159,32.551c-0.022,0.016-0.037,0.027-0.059,0.042
		c-0.088,0.063-0.18,0.13-0.268,0.194c-0.053,0.038-0.103,0.074-0.156,0.112c-0.062,0.045-0.116,0.084-0.177,0.129
		c-0.083,0.061-0.162,0.117-0.245,0.178c-0.026,0.019-0.054,0.04-0.08,0.059c-16.529,12.07-30.84,26.992-42.211,44.044
		c-0.006,0.009-0.011,0.017-0.017,0.026c-0.09,0.136-0.181,0.271-0.271,0.407c-0.045,0.068-0.084,0.128-0.129,0.196
		c-0.054,0.082-0.103,0.156-0.157,0.237c-17.986,27.324-28.45,60.036-28.45,95.194c0,44.096,16.454,84.344,43.567,114.937
		c0.13,0.145,0.258,0.29,0.386,0.434c5.428,6.084,11.278,11.781,17.506,17.049c-25.53-30.2-40.919-69.239-40.919-111.879
		c0-95.749,77.619-173.37,173.38-173.37c42.631,0,81.68,15.39,111.87,40.919c-19.306-22.828-44.416-40.597-73.051-51.032
		c-0.007-0.002-0.017-0.006-0.024-0.009c-0.262-0.095-0.52-0.189-0.783-0.283c-0.045-0.016-0.093-0.033-0.139-0.05
		c-0.115-0.042-0.231-0.083-0.347-0.124c-0.055-0.02-0.116-0.041-0.171-0.061c-0.064-0.022-0.135-0.048-0.198-0.07
		c-0.105-0.037-0.209-0.073-0.314-0.11c-0.058-0.02-0.118-0.041-0.176-0.062c-0.084-0.029-0.168-0.059-0.252-0.088
		c-0.067-0.023-0.137-0.048-0.203-0.071c-0.096-0.033-0.188-0.065-0.283-0.098c-0.044-0.015-0.091-0.031-0.134-0.046
		c-0.122-0.042-0.24-0.083-0.363-0.124c-0.038-0.013-0.08-0.027-0.117-0.04c-0.118-0.04-0.239-0.081-0.357-0.121
		c-0.014-0.005-0.026-0.009-0.041-0.014c-0.137-0.046-0.276-0.093-0.414-0.139c-0.023-0.008-0.046-0.015-0.07-0.023
		c-0.137-0.046-0.272-0.091-0.41-0.136c-0.023-0.008-0.042-0.014-0.065-0.021c-0.287-0.095-0.581-0.191-0.869-0.285
		c-0.012-0.004-0.022-0.007-0.033-0.011c-16.104-5.229-33.238-8.165-51.026-8.423c-0.003,0,0,0-0.004,0
		c-0.168-0.003-0.337-0.005-0.505-0.007c-0.003,0-0.013,0-0.017,0c-0.332-0.004-0.663-0.007-0.995-0.009c-0.013,0-0.024,0-0.037,0
		c-0.158-0.001-0.315-0.001-0.473-0.002c-0.023,0-0.046,0-0.069,0c-0.158,0-0.315-0.001-0.474-0.001"/>
	<path style="fill:#BA3D20;" d="M288.502,127.579c2.669,2.909,7.555,9.125,7.555,9.125c0.895,1.208-151.971,169.265-172.575,148.57
		l-0.073,0.073l92.062,92.062c2.109-0.14,4.199-0.31,6.29-0.521c69.97-6.951,127.69-55.521,148.081-120.61
		c3.989-12.719,6.548-26.069,7.49-39.87L288.502,127.579"/>
	<path style="fill:#42BAC6;" d="M304.749,150.328c8.79,16.171,13.781,34.711,13.781,54.411c0,20.9-5.621,40.489-15.43,57.339h-65.62
		l33.11-57.339l31.26-54.15L304.749,150.328"/>
	<path style="fill:#42BAC6;" d="M304.749,150.328l-2.899,0.26l-31.26,54.15l-33.11-57.342l-32.791-56.81
		C247.898,90.708,285.471,114.829,304.749,150.328"/>
	<path style="fill:#42BAC6;" d="M303.1,262.078c-17.691,30.401-49.03,51.89-85.63,56.071c-4.29,0.49-8.661,0.739-13.091,0.739h-0.31
		l-32.789-56.81H303.1"/>
	<polyline style="fill:#4D4D4D;" points="237.479,147.397 270.591,204.739 237.479,262.078 171.281,262.078 171.27,262.078 
		138.169,204.739 171.27,147.397 237.479,147.397 	"/>
	<polyline style="fill:#F2F2F2;" points="237.479,147.397 270.591,204.739 237.479,147.397 	"/>
	<path style="fill:#42BAC6;" d="M204.689,90.588l32.791,56.81H171.27h-65.61c19.77-33.969,56.581-56.81,98.72-56.81
		C204.479,90.588,204.589,90.588,204.689,90.588"/>
	<path style="fill:#42BAC6;" d="M171.281,262.078l32.789,56.81c-42.219-0.109-79.06-23.149-98.709-57.319l32.809-56.83
		l33.101,57.339H171.281"/>
	<path style="fill:#42BAC6;" d="M171.27,147.397l-33.101,57.342l-32.809,56.83c-9.621-16.74-15.129-36.14-15.129-56.83
		c0-20.9,5.619-40.491,15.429-57.342H171.27"/>
	<path style="fill:#328E97;" d="M184.799,262.078h-13.519l32.789,56.81h0.31c4.43,0,8.801-0.249,13.091-0.739L184.799,262.078"/>
	<path style="fill:#BA3D20;" d="M201.633,90.62c-3.491,0.082-6.942,0.32-10.343,0.708l0.001,0.002
		C194.695,90.942,198.145,90.703,201.633,90.62 M202.044,90.612c-0.104,0.002-0.209,0.004-0.313,0.007
		C201.835,90.616,201.939,90.614,202.044,90.612 M202.384,90.605c-0.059,0.001-0.118,0.002-0.177,0.003
		C202.266,90.607,202.324,90.606,202.384,90.605 M202.796,90.599c-0.04,0-0.08,0.001-0.12,0.001
		C202.717,90.6,202.755,90.599,202.796,90.599 M203.156,90.594c-0.024,0-0.049,0-0.073,0.001
		C203.106,90.595,203.132,90.595,203.156,90.594 M203.581,90.591c-0.027,0-0.054,0-0.081,0
		C203.529,90.591,203.553,90.591,203.581,90.591 M204.008,90.589c-0.025,0-0.049,0-0.073,0
		C203.96,90.589,203.983,90.589,204.008,90.589"/>
	<path style="fill:#328E97;" d="M204.689,90.588c-0.1,0-0.21,0-0.31,0l0,0c-0.124,0-0.247,0-0.371,0.001c-0.026,0-0.048,0-0.073,0
		c-0.118,0-0.236,0.001-0.354,0.002c-0.028,0-0.052,0-0.081,0c-0.115,0.001-0.23,0.002-0.345,0.003c-0.023,0-0.049,0-0.073,0.001
		c-0.096,0.001-0.191,0.002-0.287,0.004c-0.041,0-0.079,0.001-0.12,0.001c-0.097,0.001-0.195,0.003-0.292,0.005
		c-0.059,0.001-0.118,0.002-0.177,0.003c-0.054,0.001-0.108,0.002-0.163,0.003c-0.105,0.002-0.208,0.004-0.313,0.007
		c-0.033,0.001-0.065,0.001-0.098,0.002c-3.489,0.083-6.938,0.321-10.342,0.71l32.667,56.067h13.521L204.689,90.588"/>
	<polyline style="fill:#328E97;" points="105.675,147.396 105.674,147.397 171.27,147.397 105.675,147.396 	"/>
	<polyline style="fill:#3B3B3B;" points="171.27,147.397 164.509,159.107 164.51,159.107 171.27,147.397 	"/>
	<path style="fill:#328E97;" d="M171.27,147.397h-65.595l-0.154,0.266c-2.214,3.837-4.183,7.747-5.904,11.706l64.894-0.262
		L171.27,147.397"/>
	<path style="fill:#328E97;" d="M309.133,250.107l-64.891,0.262l-6.761,11.709h65.596l0.153-0.264
		C305.444,257.977,307.411,254.068,309.133,250.107"/>
	<polyline style="fill:#328E97;" points="303.077,262.078 237.479,262.078 303.074,262.082 303.077,262.078 	"/>
	<polyline style="fill:#3B3B3B;" points="244.242,250.369 244.238,250.369 237.479,262.078 244.242,250.369 	"/>
	<path style="fill:#BA3D20;" d="M110.826,270.163c0.615,0.882,1.24,1.752,1.875,2.611l0.004-0.007
		C112.068,271.91,111.439,271.039,110.826,270.163"/>
	<polyline style="fill:#3B3B3B;" points="138.169,204.739 138.169,204.739 144.928,216.449 144.929,216.448 138.169,204.739 	"/>
	<path style="fill:#328E97;" d="M138.169,204.739l-32.799,56.813l0.147,0.255c1.667,2.887,3.439,5.674,5.31,8.356
		c0.613,0.875,1.242,1.747,1.879,2.604l32.223-56.319L138.169,204.739"/>
	<polyline style="fill:#328E97;" points="138.169,204.739 105.361,261.537 105.369,261.552 138.169,204.739 	"/>
	<path style="fill:#8E2E18;" d="M296.057,136.704l-0.005,0.008c0.9,1.212,1.775,2.439,2.628,3.687
		C297.827,139.144,296.953,137.912,296.057,136.704"/>
	<polyline style="fill:#328E97;" points="301.868,150.587 301.85,150.589 270.591,204.739 301.868,150.587 	"/>
	<path style="fill:#328E97;" d="M296.053,136.712l-32.223,56.318l6.76,11.709l31.26-54.15l0.018-0.002l1.53-2.648l-0.155-0.268
		c-1.443-2.501-2.965-4.926-4.562-7.272C297.828,139.151,296.953,137.924,296.053,136.712"/>
</g>
<g>
</g>
<g>
</g>
<g>
</g>
<g>
</g>
<g>
</g>
<g>
</g>
<g>
</g>
<g>
</g>
<g>
</g>
<g>
</g>
<g>
</g>
<g>
</g>
<g>
</g>
<g>
</g>
<g>
</g>
</svg>
